<?xml version="1.0" encoding="iso-8859-1"?>
<!-- Generator: Adobe Illustrator 19.0.0, SVG Export Plug-In . SVG Version: 6.00 Build 0)  -->
<svg version="1.1" id="Capa_1" xmlns="http://www.w3.org/2000/svg" xmlns:xlink="http://www.w3.org/1999/xlink" x="0px" y="0px"
	 viewBox="0 0 455.111 455.111" style="enable-background:new 0 0 455.111 455.111;" xml:space="preserve">
<path style="fill:#5CA4DA;" d="M406.756,455.111h-358.4C21.333,455.111,0,433.778,0,406.756v-358.4C0,21.333,21.333,0,48.356,0
	h358.4c27.022,0,48.356,21.333,48.356,48.356v358.4C455.111,433.778,433.778,455.111,406.756,455.111z"/>
<path style="fill:#6DAFE0;" d="M366.933,0c-17.067,73.956-61.156,153.6-129.422,221.867C164.978,294.4,78.222,339.911,0,354.133
	V48.356C0,21.333,21.333,0,48.356,0H366.933z"/>
<path style="fill:#FFFFFF;" d="M184.889,349.867c-8.533,0-15.644-4.267-21.333-9.956l-78.222-88.178
	c-9.956-11.378-8.533-29.867,2.844-39.822c11.378-11.378,29.867-9.956,39.822,1.422l56.889,65.422l142.222-164.978
	c9.956-11.378,28.444-12.8,39.822-2.844c11.378,9.956,12.8,28.444,2.844,39.822L206.222,341.333
	C200.533,347.022,192,349.867,184.889,349.867z"/>
<g>
</g>
<g>
</g>
<g>
</g>
<g>
</g>
<g>
</g>
<g>
</g>
<g>
</g>
<g>
</g>
<g>
</g>
<g>
</g>
<g>
</g>
<g>
</g>
<g>
</g>
<g>
</g>
<g>
</g>
</svg>
