<svg id="Capa_1" enable-background="new 0 0 512 512" height="512" viewBox="0 0 512 512" width="512" xmlns="http://www.w3.org/2000/svg"><g><path d="m106 0c-19.33 0-35 15.67-35 35v442c0 19.33 15.67 35 35 35h290c8.284 0 15-6.716 15-15v-482c0-8.284-6.716-15-15-15z" fill="#9ddff6"/><g fill="#f9f1f1"><path d="m436 0h-40v512h40c19.299 0 35-15.701 35-35v-442c0-19.299-15.701-35-35-35z"/><path d="m96 141h-40c-8.284 0-15-6.716-15-15v-40c0-8.284 6.716-15 15-15h40c8.284 0 15 6.716 15 15v40c0 8.284-6.716 15-15 15z"/><path d="m96 291h-40c-8.284 0-15-6.716-15-15v-40c0-8.284 6.716-15 15-15h40c8.284 0 15 6.716 15 15v40c0 8.284-6.716 15-15 15z"/><path d="m96 441h-40c-8.284 0-15-6.716-15-15v-40c0-8.284 6.716-15 15-15h40c8.284 0 15 6.716 15 15v40c0 8.284-6.716 15-15 15z"/></g><path d="m331 171h-160c-8.284 0-15-6.716-15-15v-80c0-8.284 6.716-15 15-15h160c8.284 0 15 6.716 15 15v80c0 8.284-6.716 15-15 15z" fill="#ffde46"/><path d="m331 241h-160c-8.284 0-15-6.716-15-15s6.716-15 15-15h160c8.284 0 15 6.716 15 15s-6.716 15-15 15z" fill="#0052be"/><path d="m331 301h-120c-8.284 0-15-6.716-15-15s6.716-15 15-15h120c8.284 0 15 6.716 15 15s-6.716 15-15 15z" fill="#0052be"/><path d="m331 441h-80c-8.284 0-15-6.716-15-15s6.716-15 15-15h80c8.284 0 15 6.716 15 15s-6.716 15-15 15z" fill="#0052be"/><path d="m106 0c-19.33 0-35 15.67-35 35v442c0 19.33 15.67 35 35 35h290c8.284 0 15-6.716 15-15v-482c0-8.284-6.716-15-15-15z" fill="#9ddff6"/><g><path d="m396 0h-145v512h145c8.284 0 15-6.716 15-15v-482c0-8.284-6.716-15-15-15z" fill="#8bb9ff"/></g><path d="m96 141h-40c-8.284 0-15-6.716-15-15v-40c0-8.284 6.716-15 15-15h40c8.284 0 15 6.716 15 15v40c0 8.284-6.716 15-15 15z" fill="#f9f1f1"/><path d="m96 291h-40c-8.284 0-15-6.716-15-15v-40c0-8.284 6.716-15 15-15h40c8.284 0 15 6.716 15 15v40c0 8.284-6.716 15-15 15z" fill="#f9f1f1"/><path d="m96 441h-40c-8.284 0-15-6.716-15-15v-40c0-8.284 6.716-15 15-15h40c8.284 0 15 6.716 15 15v40c0 8.284-6.716 15-15 15z" fill="#f9f1f1"/><path d="m331 171h-160c-8.284 0-15-6.716-15-15v-80c0-8.284 6.716-15 15-15h160c8.284 0 15 6.716 15 15v80c0 8.284-6.716 15-15 15z" fill="#ffde46"/><path d="m331 241h-160c-8.284 0-15-6.716-15-15s6.716-15 15-15h160c8.284 0 15 6.716 15 15s-6.716 15-15 15z" fill="#0052be"/><path d="m331 301h-120c-8.284 0-15-6.716-15-15s6.716-15 15-15h120c8.284 0 15 6.716 15 15s-6.716 15-15 15z" fill="#0052be"/><path d="m331 441h-80c-8.284 0-15-6.716-15-15s6.716-15 15-15h80c8.284 0 15 6.716 15 15s-6.716 15-15 15z" fill="#0052be"/><g><path d="m346 156v-80c0-8.284-6.716-15-15-15h-80v110h80c8.284 0 15-6.716 15-15z" fill="#fdbf00"/><g fill="#00337a"><path d="m331 241c8.284 0 15-6.716 15-15s-6.716-15-15-15h-80v30z"/><path d="m331 301c8.284 0 15-6.716 15-15s-6.716-15-15-15h-80v30z"/><path d="m331 441c8.284 0 15-6.716 15-15s-6.716-15-15-15h-80v30z"/></g></g><path d="m436 0h-40v512h40c19.299 0 35-15.701 35-35v-442c0-19.299-15.701-35-35-35z" fill="#e2dff4"/></g></svg>