<svg id="Capa_1" enable-background="new 0 0 512 512" height="512" viewBox="0 0 512 512" width="512" xmlns="http://www.w3.org/2000/svg"><g><path d="m478.237 196c-6.213-17.422-22.707-30-42.237-30h-120c-20.744 0-38.077 14.178-43.264 33.303-5.184-2.089-10.813-3.303-16.736-3.303s-11.552 1.214-16.736 3.303c-5.187-19.125-22.52-33.303-43.264-33.303h-120c-19.53 0-36.024 12.578-42.237 30h-33.763v30h31v15c0 57.891 47.109 105 105 105s105-47.109 105-105c0-8.276 6.724-15 15-15s15 6.724 15 15c0 57.891 47.109 105 105 105s105-47.109 105-105v-15h31v-30z" fill="#5e54ac"/><path d="m271 241c0 57.891 47.109 105 105 105s105-47.109 105-105v-15h31v-30h-33.763c-6.213-17.422-22.707-30-42.237-30h-120c-20.744 0-38.077 14.178-43.264 33.303-5.184-2.089-10.813-3.303-16.736-3.303v30c8.276 0 15 6.724 15 15z" fill="#453d81"/><path d="m196 196h-120c-4.587 0-8.549 2.181-11.301 5.429l4.434 18.863-8.133 11.516v9.192c0 41.353 33.647 75 75 75s75-33.647 75-75v-30c0-8.276-6.724-15-15-15z" fill="#f2faff"/><path d="m447.301 201.429c-2.752-3.248-6.714-5.429-11.301-5.429h-120c-8.276 0-15 6.724-15 15v30c0 41.353 33.647 75 75 75s75-33.647 75-75v-9.192l-10.931-6.862z" fill="#c8eafa"/><path d="m121 286h30c0-33.384-21.27-62.9-52.939-73.447l-33.362-11.124c-2.216 2.615-3.699 5.881-3.699 9.571v20.808l27.568 9.192c19.395 6.475 32.432 24.551 32.432 45z" fill="#c8eafa"/><path d="m361 286h30c0-20.449 13.037-38.525 32.432-45l27.568-9.192v-20.808c0-3.69-1.483-6.956-3.699-9.571l-33.362 11.124c-31.669 10.547-52.939 40.063-52.939 73.447z" fill="#aed6ea"/></g></svg>